<?xml version="1.0" encoding="utf-8"?>
<!-- Generator: Adobe Illustrator 16.0.0, SVG Export Plug-In . SVG Version: 6.00 Build 0)  -->
<!DOCTYPE svg PUBLIC "-//W3C//DTD SVG 1.1//EN" "http://www.w3.org/Graphics/SVG/1.1/DTD/svg11.dtd">
<svg version="1.1" id="Capa_1" xmlns="http://www.w3.org/2000/svg" xmlns:xlink="http://www.w3.org/1999/xlink" x="0px" y="0px"
	 width="595.279px" height="841.89px" viewBox="0 0 595.279 841.89" enable-background="new 0 0 595.279 841.89"
	 xml:space="preserve">
<g>
	<path fill="#FD641F" d="M593.072,270.102c-8.694-43.632-42.311-81.146-99.912-111.502c-4.05-2.133-8.96-3.1-12.816-0.634
		c-2.312,1.477-4.145,3.245-6.985,9.755c-1.644,4.594-18.396,44.438-143.331,180.656c-14.692,16.018-27.941,31.083-40.753,45.65
		c-34.061,38.724-60.962,69.312-86.412,85.011c-13.59,8.383-26.194,12.635-37.464,12.635c-11.69,0-21.661-4.613-29.637-13.717
		c-3.141-3.586-7.917-5.283-12.619-4.48c-8.283,1.412-81.455,15.127-106.945,56.125c-17.561,28.244-16.169,50.234-16.169,50.633
		c0,10.414,3.265,34.033,15.498,56.498c15.268,28.033,39.197,44.939,69.203,48.625c0.554,0.068,174.753,0,175.333,0
		c11.324,0,49.515-4.51,78.129-112.943c11.502-43.584,29.857-114.398,90.032-157.275c4.089,5.464,8.303,20.629,8.628,36.762
		c0.024,1.59,2.354,159.584,4.966,220.318c0.315,7.336,6.355,13.137,13.697,13.137h39.596c3.669,0,7.187-1.486,9.762-4.1
		c2.576-2.611,3.998-6.146,3.949-9.818c-0.624-45.117-0.54-168.857,7.24-199.188c14.768-57.574,48.437-95.04,49.036-95.7
		c0.069-0.075,0.117-0.159,0.185-0.236c0.086-0.099,0.187-0.185,0.271-0.287C567.152,374.095,604.627,328.09,593.072,270.102z
		 M260.19,657.91c-0.507-0.092-0.38-0.018-1.148-0.018H87.277c-29.029-3.906-44.553-24.746-52.45-44.336
		c34.967,3.369,81.755,5.342,128.299,5.342c0.002,0,0.002,0,0.004,0c41.858,0,80.224-1.611,108.021-4.535
		c11.097-1.168,20.205-2.498,27.723-3.99C282.746,654.63,262.781,657.705,260.19,657.91z M489.499,465.433
		c-8.63,33.645-8.542,151.553-8.237,192.482h-12.559c-2.384-67.313-4.413-204.941-4.435-206.463
		c-0.125-7.02-1.381-33.148-12.556-50.321c13.866-6.676,43.908-19.273,76.393-21.171
		C515.595,398.505,499.106,427.976,489.499,465.433z M548.532,352.776c-4.028-0.324-8.138-0.486-12.284-0.486
		c-54.92,0-104.185,28.011-106.161,29.15c-82.639,46.735-105.921,136.062-118.431,184.052c-1.375,5.273-2.598,9.969-3.764,14.121
		c-10.592,5.063-55.491,11.863-144.77,11.863c-49.228,0-99.721-2.227-134.381-5.982c-3.61-4.67-1.64-21.715,10.813-41.535
		c14.529-23.133,58.538-37.113,81.292-42.094c12.355,11.299,27.607,17.227,44.551,17.225c16.43-0.002,33.878-5.625,51.858-16.719
		c28.938-17.85,57.036-49.795,92.606-90.238c12.721-14.463,25.874-29.417,40.372-45.226
		c95.16-103.751,130.005-154.067,142.757-177.039c42.086,24.714,66.666,53.372,73.136,85.327
		C573.169,309.979,556.593,340.5,548.532,352.776z"/>
</g>
</svg>
