<?xml version="1.0" encoding="iso-8859-1"?>
<!-- Generator: Adobe Illustrator 16.0.0, SVG Export Plug-In . SVG Version: 6.00 Build 0)  -->
<!DOCTYPE svg PUBLIC "-//W3C//DTD SVG 1.1//EN" "http://www.w3.org/Graphics/SVG/1.1/DTD/svg11.dtd">
<svg version="1.1" id="Capa_1" xmlns="http://www.w3.org/2000/svg" xmlns:xlink="http://www.w3.org/1999/xlink" x="0px" y="0px"
	 width="62.427px" height="62.427px" viewBox="0 0 62.427 62.427" style="enable-background:new 0 0 62.427 62.427;"
	 xml:space="preserve">
<g>
	<g>
		<path d="M27.456,46.562c2.123,11.422,7.143,12.562,7.143,12.562c10.207,1.937,25.711-4.909,26.743-7.621
			c0.789-2.069,0.9-7.284,0.908-9.647c-5.493,4-12.848,6.048-21.908,6.048C34.097,47.9,29.068,46.916,27.456,46.562z"/>
		<path d="M8.79,58.445c0,0-0.257-19.86,0.602-28.741c-0.198,0.017-0.395,0.035-0.588,0.054c-0.462,0.047-0.941,0.096-1.426,0.096
			c-1.697,0-3.091-0.671-4.486-2.203c0.312,1.057,0.728,2.246,1.29,3.51c1.941,4.364,0.85,26.556,0.85,26.556
			S6.122,59.414,8.79,58.445z"/>
		<path d="M56.845,38.896c-7.269-0.492-9.978-3.448-9.978-3.448s-0.011,0.013-0.028,0.032c-0.046-0.042-0.097-0.081-0.163-0.109
			c-0.108-0.047-0.218-0.081-0.326-0.124c-0.176-0.07-0.353-0.137-0.529-0.201c-2.98-1.082-6.118-1.418-9.114-2.456
			c-4.686-1.623-7.107-6.608-9.556-10.561c-2.127-3.433-4.798-6.182-7.774-8.581c-0.426-0.344-0.858-0.68-1.297-1.011
			c-0.417-0.314-0.841-0.624-1.269-0.928c-3.529-5.123-5.848-7.776-7.143-8.458C9.559,2.993,9.427,2.964,9.277,2.964
			c-3.049,0-13.816,11.637-7.124,21.991c0.04,0.062,0.079,0.117,0.118,0.176c2.049,3.104,3.554,3.681,5.106,3.681
			c0.683,0,1.376-0.109,2.128-0.163c0.239-0.016,0.481-0.029,0.733-0.029c3.24,0,7.739,1.829,16.92,16.805
			c0,0,5.773,1.435,13.183,1.435c6.988,0,15.431-1.276,21.859-6.24C62.201,40.619,64.112,39.389,56.845,38.896z M39.954,38.758
			c-3.338,0-7.594-2.113-12.11-9.716c-3.709-6.246-6.814-11.217-9.383-15.088c0.244,0.188,0.498,0.358,0.738,0.551
			c0.206,0.164,0.391,0.341,0.588,0.511c0.539,0.463,1.054,0.943,1.544,1.437c2.9,2.932,5.023,6.382,7.27,9.929
			c1.812,2.86,4.039,5.731,7.274,7.014c2.92,1.161,6.057,1.487,9.036,2.454c0.194,0.063,0.387,0.134,0.58,0.205
			c0.187,0.066,0.372,0.137,0.558,0.209C44.943,37.244,42.781,38.758,39.954,38.758z"/>
	</g>
</g>
<g>
</g>
<g>
</g>
<g>
</g>
<g>
</g>
<g>
</g>
<g>
</g>
<g>
</g>
<g>
</g>
<g>
</g>
<g>
</g>
<g>
</g>
<g>
</g>
<g>
</g>
<g>
</g>
<g>
</g>
</svg>
